<?xml version="1.0" encoding="utf-8"?>
<!-- Generator: Adobe Illustrator 19.2.1, SVG Export Plug-In . SVG Version: 6.00 Build 0)  -->
<svg version="1.1" id="レイヤー_1" xmlns="http://www.w3.org/2000/svg" xmlns:xlink="http://www.w3.org/1999/xlink" x="0px"
	 y="0px" viewBox="0 0 256 256" style="enable-background:new 0 0 256 256;" xml:space="preserve">
<style type="text/css">
	.st0{fill:#BFBFBF;}
	.st1{fill:#FFFFFF;}
	.st2{fill:#EC7474;}
</style>
<rect class="st0" width="256" height="256"/>
<g>
	<path class="st1" d="M32.9,33.3h-2.8L29,30.4h-5.2l-1.1,2.9H20l5-12.9h2.8L32.9,33.3z M28.1,28.2l-1.8-4.8l-1.7,4.8H28.1z"/>
	<path class="st1" d="M40.4,33.3v-1.4c-0.3,0.5-0.8,0.9-1.3,1.2s-1.1,0.4-1.8,0.4c-0.6,0-1.2-0.1-1.7-0.4s-0.9-0.7-1.1-1.2
		s-0.3-1.2-0.3-2.1V24h2.5v4.3c0,1.3,0,2.1,0.1,2.4s0.3,0.5,0.5,0.7s0.5,0.3,0.9,0.3c0.4,0,0.8-0.1,1.1-0.3s0.6-0.5,0.7-0.9
		s0.2-1.2,0.2-2.5V24h2.5v9.3H40.4z"/>
	<path class="st1" d="M50.5,24v2h-1.7v3.8c0,0.8,0,1.2,0,1.3s0.1,0.2,0.2,0.3s0.3,0.1,0.4,0.1c0.2,0,0.6-0.1,1-0.2l0.2,1.9
		c-0.6,0.2-1.2,0.4-2,0.4c-0.4,0-0.8-0.1-1.2-0.2s-0.6-0.3-0.8-0.6s-0.3-0.6-0.3-1c-0.1-0.3-0.1-0.9-0.1-1.7V26h-1.1v-2h1.1v-1.9
		l2.5-1.4V24H50.5z"/>
	<path class="st1" d="M55.5,20.4v4.7c0.8-0.9,1.7-1.4,2.9-1.4c0.6,0,1.1,0.1,1.5,0.3s0.8,0.5,1,0.8s0.4,0.7,0.5,1.1s0.1,1,0.1,1.9
		v5.5h-2.5v-4.9c0-1,0-1.6-0.1-1.9s-0.3-0.5-0.5-0.6s-0.5-0.2-0.9-0.2c-0.4,0-0.8,0.1-1.1,0.3s-0.6,0.5-0.7,0.9s-0.2,1-0.2,1.8v4.7
		h-2.5V20.4H55.5z"/>
	<path class="st1" d="M64,28.5c0-0.8,0.2-1.6,0.6-2.4s1-1.4,1.7-1.8s1.6-0.6,2.5-0.6c1.4,0,2.6,0.5,3.5,1.4s1.4,2.1,1.4,3.5
		c0,1.4-0.5,2.6-1.4,3.5s-2.1,1.4-3.4,1.4c-0.9,0-1.7-0.2-2.4-0.6s-1.4-1-1.8-1.7S64,29.6,64,28.5z M66.5,28.7
		c0,0.9,0.2,1.6,0.7,2.1s1,0.7,1.6,0.7s1.2-0.2,1.6-0.7s0.7-1.2,0.7-2.1c0-0.9-0.2-1.6-0.7-2.1s-1-0.7-1.6-0.7s-1.2,0.2-1.6,0.7
		S66.5,27.7,66.5,28.7z"/>
	<path class="st1" d="M78.3,33.3h-2.5V24h2.3v1.3c0.4-0.6,0.7-1,1.1-1.2s0.7-0.3,1.1-0.3c0.6,0,1.1,0.2,1.6,0.5l-0.8,2.2
		C80.7,26.1,80.3,26,80,26c-0.3,0-0.6,0.1-0.9,0.3s-0.4,0.5-0.6,1s-0.2,1.5-0.2,3.1V33.3z"/>
	<path class="st1" d="M88.4,33.3V20.4h4.2c1.6,0,2.6,0.1,3.1,0.2c0.7,0.2,1.4,0.6,1.9,1.3s0.7,1.5,0.7,2.5c0,0.8-0.1,1.5-0.4,2
		s-0.7,1-1.1,1.3s-0.9,0.5-1.3,0.6c-0.6,0.1-1.5,0.2-2.7,0.2H91v4.9H88.4z M91,22.6v3.7h1.4c1,0,1.7-0.1,2.1-0.2s0.6-0.3,0.8-0.6
		s0.3-0.6,0.3-1c0-0.5-0.1-0.9-0.4-1.2s-0.6-0.5-1-0.6c-0.3-0.1-0.9-0.1-1.9-0.1H91z"/>
	<path class="st1" d="M102.8,33.3h-2.5V24h2.3v1.3c0.4-0.6,0.7-1,1.1-1.2s0.7-0.3,1.1-0.3c0.6,0,1.1,0.2,1.6,0.5l-0.8,2.2
		c-0.4-0.3-0.8-0.4-1.2-0.4c-0.3,0-0.6,0.1-0.9,0.3s-0.4,0.5-0.6,1s-0.2,1.5-0.2,3.1V33.3z"/>
	<path class="st1" d="M107.3,28.5c0-0.8,0.2-1.6,0.6-2.4s1-1.4,1.7-1.8s1.6-0.6,2.5-0.6c1.4,0,2.6,0.5,3.5,1.4s1.4,2.1,1.4,3.5
		c0,1.4-0.5,2.6-1.4,3.5s-2.1,1.4-3.4,1.4c-0.9,0-1.7-0.2-2.4-0.6s-1.4-1-1.8-1.7S107.3,29.6,107.3,28.5z M109.8,28.7
		c0,0.9,0.2,1.6,0.7,2.1s1,0.7,1.6,0.7s1.2-0.2,1.6-0.7s0.7-1.2,0.7-2.1c0-0.9-0.2-1.6-0.7-2.1s-1-0.7-1.6-0.7s-1.2,0.2-1.6,0.7
		S109.8,27.7,109.8,28.7z"/>
	<path class="st1" d="M118.3,24h1.4v-0.7c0-0.8,0.1-1.4,0.3-1.8s0.5-0.7,0.9-0.9c0.4-0.2,1-0.4,1.7-0.4c0.7,0,1.4,0.1,2.1,0.3
		l-0.3,1.7c-0.4-0.1-0.8-0.1-1.1-0.1c-0.4,0-0.6,0.1-0.8,0.3c-0.2,0.2-0.2,0.5-0.2,1V24h1.8v1.9h-1.8v7.4h-2.5v-7.4h-1.4V24z"/>
	<path class="st1" d="M126.2,22.7v-2.3h2.5v2.3H126.2z M126.2,33.3V24h2.5v9.3H126.2z"/>
	<path class="st1" d="M132.1,33.3V20.4h2.5v12.9H132.1z"/>
	<path class="st1" d="M143.4,30.4l2.5,0.4c-0.3,0.9-0.8,1.6-1.5,2.1c-0.7,0.5-1.5,0.7-2.6,0.7c-1.6,0-2.8-0.5-3.6-1.6
		c-0.6-0.8-0.9-1.9-0.9-3.2c0-1.5,0.4-2.8,1.2-3.6s1.8-1.3,3.1-1.3c1.4,0,2.5,0.5,3.3,1.4s1.2,2.3,1.2,4.2h-6.2
		c0,0.7,0.2,1.3,0.6,1.7s0.9,0.6,1.4,0.6c0.4,0,0.7-0.1,1-0.3S143.3,30.8,143.4,30.4z M143.6,27.9c0-0.7-0.2-1.3-0.6-1.6
		s-0.8-0.6-1.3-0.6c-0.5,0-1,0.2-1.3,0.6s-0.5,0.9-0.5,1.6H143.6z"/>
</g>
<rect x="138" y="46.2" class="st1" width="98" height="7"/>
<rect x="138" y="64.6" class="st1" width="98" height="7"/>
<rect x="138" y="83" class="st1" width="98" height="7"/>
<rect x="138" y="101.4" class="st1" width="98" height="7"/>
<rect x="138" y="119.8" class="st1" width="98" height="7"/>
<rect x="138" y="138.2" class="st1" width="98" height="7"/>
<circle class="st1" cx="72.5" cy="95.2" r="52"/>
<g>
	<path class="st2" d="M80.8,105.9c-1.6-0.3-1.7-4.7-1.7-4.7s4.8-4.7,5.8-11.1c2.8,0,4.5-6.8,1.7-9.1c0.1-2.5,3.6-19.7-14-19.7
		c-17.6,0-14.2,17.2-14,19.7c-2.8,2.4-1.1,9.1,1.7,9.1c1,6.4,5.8,11.1,5.8,11.1s0,4.5-1.7,4.7c-5.2,0.8-21.8,9.5-21.8,18.9h59.9
		C102.6,115.4,86,106.8,80.8,105.9L80.8,105.9z M80.8,105.9"/>
</g>
<g>
	<path class="st1" d="M20.4,172.3v-12.8H23v10.6h6.5v2.2H20.4z"/>
	<path class="st1" d="M34,165.8l-2.2-0.4c0.3-0.9,0.7-1.6,1.3-2s1.5-0.7,2.7-0.7c1.1,0,1.9,0.1,2.5,0.4s0.9,0.6,1.1,1
		s0.3,1.1,0.3,2.2l0,2.9c0,0.8,0,1.4,0.1,1.8s0.2,0.8,0.4,1.3h-2.4c-0.1-0.2-0.1-0.4-0.2-0.7c0-0.1-0.1-0.2-0.1-0.3
		c-0.4,0.4-0.9,0.7-1.4,0.9s-1,0.3-1.5,0.3c-1,0-1.7-0.3-2.3-0.8s-0.8-1.2-0.8-2c0-0.5,0.1-1,0.4-1.4s0.6-0.7,1.1-0.9s1.1-0.4,2-0.6
		c1.2-0.2,2-0.4,2.4-0.6V166c0-0.5-0.1-0.8-0.4-1s-0.7-0.3-1.3-0.3c-0.4,0-0.8,0.1-1,0.3S34.2,165.4,34,165.8z M37.3,167.9
		c-0.3,0.1-0.8,0.2-1.5,0.4s-1.1,0.3-1.3,0.4c-0.3,0.2-0.5,0.5-0.5,0.9c0,0.3,0.1,0.6,0.4,0.9s0.6,0.4,1,0.4c0.4,0,0.9-0.1,1.3-0.4
		c0.3-0.2,0.5-0.5,0.6-0.8c0.1-0.2,0.1-0.6,0.1-1.2V167.9z"/>
	<path class="st1" d="M47.1,163v2h-1.7v3.8c0,0.8,0,1.2,0,1.3s0.1,0.2,0.2,0.3s0.3,0.1,0.4,0.1c0.2,0,0.6-0.1,1-0.2l0.2,1.9
		c-0.6,0.2-1.2,0.4-2,0.4c-0.4,0-0.8-0.1-1.2-0.2s-0.6-0.3-0.8-0.6s-0.3-0.6-0.3-1c-0.1-0.3-0.1-0.9-0.1-1.7V165h-1.1v-2h1.1v-1.9
		l2.5-1.4v3.3H47.1z"/>
	<path class="st1" d="M55.1,169.4l2.5,0.4c-0.3,0.9-0.8,1.6-1.5,2.1s-1.5,0.7-2.6,0.7c-1.6,0-2.8-0.5-3.6-1.6
		c-0.6-0.8-0.9-1.9-0.9-3.2c0-1.5,0.4-2.8,1.2-3.6s1.8-1.3,3.1-1.3c1.4,0,2.5,0.5,3.3,1.4s1.2,2.3,1.2,4.2h-6.2
		c0,0.7,0.2,1.3,0.6,1.7s0.9,0.6,1.4,0.6c0.4,0,0.7-0.1,1-0.3S55,169.8,55.1,169.4z M55.3,166.9c0-0.7-0.2-1.3-0.6-1.6
		s-0.8-0.6-1.3-0.6c-0.5,0-1,0.2-1.3,0.6s-0.5,0.9-0.5,1.6H55.3z"/>
	<path class="st1" d="M59.3,169.7l2.5-0.4c0.1,0.5,0.3,0.8,0.6,1.1s0.8,0.4,1.4,0.4c0.6,0,1.1-0.1,1.4-0.4c0.2-0.2,0.3-0.4,0.3-0.7
		c0-0.2-0.1-0.3-0.2-0.5c-0.1-0.1-0.4-0.2-0.8-0.3c-2-0.4-3.3-0.8-3.8-1.2c-0.7-0.5-1.1-1.2-1.1-2.1c0-0.8,0.3-1.5,1-2
		s1.6-0.8,3-0.8c1.3,0,2.2,0.2,2.8,0.6s1,1,1.3,1.8l-2.3,0.4c-0.1-0.4-0.3-0.6-0.6-0.8s-0.7-0.3-1.2-0.3c-0.7,0-1.1,0.1-1.4,0.3
		c-0.2,0.1-0.3,0.3-0.3,0.5c0,0.2,0.1,0.3,0.2,0.4c0.2,0.2,1,0.4,2.3,0.7s2.2,0.7,2.8,1.1c0.5,0.4,0.8,1.1,0.8,1.8
		c0,0.9-0.4,1.6-1.1,2.2s-1.8,0.9-3.2,0.9c-1.3,0-2.3-0.3-3-0.8S59.5,170.6,59.3,169.7z"/>
	<path class="st1" d="M74.9,163v2h-1.7v3.8c0,0.8,0,1.2,0,1.3s0.1,0.2,0.2,0.3s0.3,0.1,0.4,0.1c0.2,0,0.6-0.1,1-0.2l0.2,1.9
		c-0.6,0.2-1.2,0.4-2,0.4c-0.4,0-0.8-0.1-1.2-0.2s-0.6-0.3-0.8-0.6s-0.3-0.6-0.3-1c-0.1-0.3-0.1-0.9-0.1-1.7V165h-1.1v-2h1.1v-1.9
		l2.5-1.4v3.3H74.9z"/>
	<path class="st1" d="M87.9,169.4l2.5,0.4c-0.3,0.9-0.8,1.6-1.5,2.1s-1.5,0.7-2.6,0.7c-1.6,0-2.8-0.5-3.6-1.6
		c-0.6-0.8-0.9-1.9-0.9-3.2c0-1.5,0.4-2.8,1.2-3.6s1.8-1.3,3.1-1.3c1.4,0,2.5,0.5,3.3,1.4s1.2,2.3,1.2,4.2h-6.2
		c0,0.7,0.2,1.3,0.6,1.7s0.9,0.6,1.4,0.6c0.4,0,0.7-0.1,1-0.3S87.8,169.8,87.9,169.4z M88.1,166.9c0-0.7-0.2-1.3-0.6-1.6
		s-0.8-0.6-1.3-0.6c-0.5,0-1,0.2-1.3,0.6s-0.5,0.9-0.5,1.6H88.1z"/>
	<path class="st1" d="M101.5,172.3H99v-4.8c0-1-0.1-1.7-0.2-2s-0.3-0.5-0.5-0.7s-0.5-0.2-0.9-0.2c-0.4,0-0.8,0.1-1.2,0.4
		s-0.6,0.5-0.7,0.9s-0.2,1.1-0.2,2.1v4.2H93V163h2.3v1.4c0.8-1.1,1.8-1.6,3.1-1.6c0.5,0,1,0.1,1.5,0.3s0.8,0.4,1,0.8s0.4,0.7,0.5,1
		s0.1,0.9,0.1,1.7V172.3z"/>
	<path class="st1" d="M108.7,163v2H107v3.8c0,0.8,0,1.2,0,1.3s0.1,0.2,0.2,0.3s0.3,0.1,0.4,0.1c0.2,0,0.6-0.1,1-0.2l0.2,1.9
		c-0.6,0.2-1.2,0.4-2,0.4c-0.4,0-0.8-0.1-1.2-0.2s-0.6-0.3-0.8-0.6s-0.3-0.6-0.3-1c-0.1-0.3-0.1-0.9-0.1-1.7V165h-1.1v-2h1.1v-1.9
		l2.5-1.4v3.3H108.7z"/>
	<path class="st1" d="M114.2,172.3h-2.5V163h2.3v1.3c0.4-0.6,0.7-1,1.1-1.2s0.7-0.3,1.1-0.3c0.6,0,1.1,0.2,1.6,0.5l-0.8,2.2
		c-0.4-0.3-0.8-0.4-1.2-0.4c-0.3,0-0.6,0.1-0.9,0.3s-0.4,0.5-0.6,1s-0.2,1.5-0.2,3.1V172.3z"/>
	<path class="st1" d="M119.7,161.7v-2.3h2.5v2.3H119.7z M119.7,172.3V163h2.5v9.3H119.7z"/>
	<path class="st1" d="M131,169.4l2.5,0.4c-0.3,0.9-0.8,1.6-1.5,2.1c-0.7,0.5-1.5,0.7-2.6,0.7c-1.6,0-2.8-0.5-3.6-1.6
		c-0.6-0.8-0.9-1.9-0.9-3.2c0-1.5,0.4-2.8,1.2-3.6s1.8-1.3,3.1-1.3c1.4,0,2.5,0.5,3.3,1.4s1.2,2.3,1.2,4.2h-6.2
		c0,0.7,0.2,1.3,0.6,1.7s0.9,0.6,1.4,0.6c0.4,0,0.7-0.1,1-0.3S130.9,169.8,131,169.4z M131.1,166.9c0-0.7-0.2-1.3-0.6-1.6
		s-0.8-0.6-1.3-0.6c-0.5,0-1,0.2-1.3,0.6s-0.5,0.9-0.5,1.6H131.1z"/>
	<path class="st1" d="M135.2,169.7l2.5-0.4c0.1,0.5,0.3,0.8,0.6,1.1s0.8,0.4,1.4,0.4c0.6,0,1.1-0.1,1.4-0.4c0.2-0.2,0.3-0.4,0.3-0.7
		c0-0.2-0.1-0.3-0.2-0.5c-0.1-0.1-0.4-0.2-0.8-0.3c-2-0.4-3.3-0.8-3.8-1.2c-0.7-0.5-1.1-1.2-1.1-2.1c0-0.8,0.3-1.5,1-2
		s1.6-0.8,3-0.8c1.3,0,2.2,0.2,2.8,0.6s1,1,1.3,1.8l-2.3,0.4c-0.1-0.4-0.3-0.6-0.6-0.8s-0.7-0.3-1.2-0.3c-0.7,0-1.1,0.1-1.4,0.3
		c-0.2,0.1-0.3,0.3-0.3,0.5c0,0.2,0.1,0.3,0.2,0.4c0.2,0.2,1,0.4,2.3,0.7s2.2,0.7,2.8,1.1c0.5,0.4,0.8,1.1,0.8,1.8
		c0,0.9-0.4,1.6-1.1,2.2s-1.8,0.9-3.2,0.9c-1.3,0-2.3-0.3-3-0.8C135.9,171.3,135.4,170.6,135.2,169.7z"/>
</g>
<path d="M76.6,227.9"/>
<g>
	<rect x="20" y="183" class="st1" width="64" height="53"/>
	<path class="st2" d="M64.5,197.6c0,3.3,2.7,6.1,6.1,6.1c3.3,0,6.1-2.7,6.1-6.1c0-3.3-2.7-6.1-6.1-6.1
		C67.2,191.5,64.5,194.3,64.5,197.6L64.5,197.6z"/>
	<polygon class="st2" points="76.6,227.9 28.1,227.9 40.2,195.6 56.4,215.8 64.5,209.7 	"/>
</g>
<g>
	<rect x="96" y="183" class="st1" width="64" height="53"/>
	<path class="st2" d="M140.5,197.6c0,3.3,2.7,6.1,6.1,6.1c3.3,0,6.1-2.7,6.1-6.1c0-3.3-2.7-6.1-6.1-6.1
		C143.2,191.5,140.5,194.3,140.5,197.6L140.5,197.6z"/>
	<polygon class="st2" points="152.6,227.9 104.1,227.9 116.2,195.6 132.4,215.8 140.5,209.7 	"/>
</g>
<g>
	<rect x="172" y="183" class="st1" width="64" height="53"/>
	<path class="st2" d="M216.5,197.6c0,3.3,2.7,6.1,6.1,6.1c3.3,0,6.1-2.7,6.1-6.1c0-3.3-2.7-6.1-6.1-6.1
		C219.2,191.5,216.5,194.3,216.5,197.6L216.5,197.6z"/>
	<polygon class="st2" points="228.6,227.9 180.1,227.9 192.2,195.6 208.4,215.8 216.5,209.7 	"/>
</g>
</svg>
